<svg id="visual" viewBox="0 0 1920 1080" width="1920" height="1080" xmlns="http://www.w3.org/2000/svg" xmlns:xlink="http://www.w3.org/1999/xlink" version="1.1"><path d="M0 228L22.8 226.2C45.7 224.3 91.3 220.7 137 220.7C182.7 220.7 228.3 224.3 274 208.2C319.7 192 365.3 156 411.2 132.5C457 109 503 98 548.8 101.5C594.7 105 640.3 123 686 148.3C731.7 173.7 777.3 206.3 823 220.8C868.7 235.3 914.3 231.7 960 233.3C1005.7 235 1051.3 242 1097 236.5C1142.7 231 1188.3 213 1234 205.8C1279.7 198.7 1325.3 202.3 1371.2 188C1417 173.7 1463 141.3 1508.8 125.2C1554.7 109 1600.3 109 1646 127C1691.7 145 1737.3 181 1783 199C1828.7 217 1874.3 217 1897.2 217L1920 217L1920 0L1897.2 0C1874.3 0 1828.7 0 1783 0C1737.3 0 1691.7 0 1646 0C1600.3 0 1554.7 0 1508.8 0C1463 0 1417 0 1371.2 0C1325.3 0 1279.7 0 1234 0C1188.3 0 1142.7 0 1097 0C1051.3 0 1005.7 0 960 0C914.3 0 868.7 0 823 0C777.3 0 731.7 0 686 0C640.3 0 594.7 0 548.8 0C503 0 457 0 411.2 0C365.3 0 319.7 0 274 0C228.3 0 182.7 0 137 0C91.3 0 45.7 0 22.8 0L0 0Z" fill="#333333"></path><path d="M0 692L22.8 666.8C45.7 641.7 91.3 591.3 137 596.8C182.7 602.3 228.3 663.7 274 645.7C319.7 627.7 365.3 530.3 411.2 503.3C457 476.3 503 519.7 548.8 523.3C594.7 527 640.3 491 686 471.2C731.7 451.3 777.3 447.7 823 440.3C868.7 433 914.3 422 960 431C1005.7 440 1051.3 469 1097 517.7C1142.7 566.3 1188.3 634.7 1234 634.7C1279.7 634.7 1325.3 566.3 1371.2 503.3C1417 440.3 1463 382.7 1508.8 357.5C1554.7 332.3 1600.3 339.7 1646 348.7C1691.7 357.7 1737.3 368.3 1783 397C1828.7 425.7 1874.3 472.3 1897.2 495.7L1920 519L1920 215L1897.2 215C1874.3 215 1828.7 215 1783 197C1737.3 179 1691.7 143 1646 125C1600.3 107 1554.7 107 1508.8 123.2C1463 139.3 1417 171.7 1371.2 186C1325.3 200.3 1279.7 196.7 1234 203.8C1188.3 211 1142.7 229 1097 234.5C1051.3 240 1005.7 233 960 231.3C914.3 229.7 868.7 233.3 823 218.8C777.3 204.3 731.7 171.7 686 146.3C640.3 121 594.7 103 548.8 99.5C503 96 457 107 411.2 130.5C365.3 154 319.7 190 274 206.2C228.3 222.3 182.7 218.7 137 218.7C91.3 218.7 45.7 222.3 22.8 224.2L0 226Z" fill="#404651"></path><path d="M0 833L22.8 797C45.7 761 91.3 689 137 685.3C182.7 681.7 228.3 746.3 274 744.5C319.7 742.7 365.3 674.3 411.2 665.3C457 656.3 503 706.7 548.8 710.2C594.7 713.7 640.3 670.3 686 636.2C731.7 602 777.3 577 823 562.7C868.7 548.3 914.3 544.7 960 553.7C1005.7 562.7 1051.3 584.3 1097 627.5C1142.7 670.7 1188.3 735.3 1234 737.2C1279.7 739 1325.3 678 1371.2 629.5C1417 581 1463 545 1508.8 532.3C1554.7 519.7 1600.3 530.3 1646 532C1691.7 533.7 1737.3 526.3 1783 560.5C1828.7 594.7 1874.3 670.3 1897.2 708.2L1920 746L1920 517L1897.2 493.7C1874.3 470.3 1828.7 423.7 1783 395C1737.3 366.3 1691.7 355.7 1646 346.7C1600.3 337.7 1554.7 330.3 1508.8 355.5C1463 380.7 1417 438.3 1371.2 501.3C1325.3 564.3 1279.7 632.7 1234 632.7C1188.3 632.7 1142.7 564.3 1097 515.7C1051.3 467 1005.7 438 960 429C914.3 420 868.7 431 823 438.3C777.3 445.7 731.7 449.3 686 469.2C640.3 489 594.7 525 548.8 521.3C503 517.7 457 474.3 411.2 501.3C365.3 528.3 319.7 625.7 274 643.7C228.3 661.7 182.7 600.3 137 594.8C91.3 589.3 45.7 639.7 22.8 664.8L0 690Z" fill="#4d5a71"></path><path d="M0 930L22.8 890.3C45.7 850.7 91.3 771.3 137 762.3C182.7 753.3 228.3 814.7 274 827.3C319.7 840 365.3 804 411.2 804C457 804 503 840 548.8 832.8C594.7 825.7 640.3 775.3 686 742.8C731.7 710.3 777.3 695.7 823 692C868.7 688.3 914.3 695.7 960 695.7C1005.7 695.7 1051.3 688.3 1097 724.3C1142.7 760.3 1188.3 839.7 1234 843.3C1279.7 847 1325.3 775 1371.2 724.7C1417 674.3 1463 645.7 1508.8 636.7C1554.7 627.7 1600.3 638.3 1646 645.5C1691.7 652.7 1737.3 656.3 1783 683.3C1828.7 710.3 1874.3 760.7 1897.2 785.8L1920 811L1920 744L1897.2 706.2C1874.3 668.3 1828.7 592.7 1783 558.5C1737.3 524.3 1691.7 531.7 1646 530C1600.3 528.3 1554.7 517.7 1508.8 530.3C1463 543 1417 579 1371.2 627.5C1325.3 676 1279.7 737 1234 735.2C1188.3 733.3 1142.7 668.7 1097 625.5C1051.3 582.3 1005.7 560.7 960 551.7C914.3 542.7 868.7 546.3 823 560.7C777.3 575 731.7 600 686 634.2C640.3 668.3 594.7 711.7 548.8 708.2C503 704.7 457 654.3 411.2 663.3C365.3 672.3 319.7 740.7 274 742.5C228.3 744.3 182.7 679.7 137 683.3C91.3 687 45.7 759 22.8 795L0 831Z" fill="#596f93"></path><path d="M0 1081L22.8 1081C45.7 1081 91.3 1081 137 1081C182.7 1081 228.3 1081 274 1081C319.7 1081 365.3 1081 411.2 1081C457 1081 503 1081 548.8 1081C594.7 1081 640.3 1081 686 1081C731.7 1081 777.3 1081 823 1081C868.7 1081 914.3 1081 960 1081C1005.7 1081 1051.3 1081 1097 1081C1142.7 1081 1188.3 1081 1234 1081C1279.7 1081 1325.3 1081 1371.2 1081C1417 1081 1463 1081 1508.8 1081C1554.7 1081 1600.3 1081 1646 1081C1691.7 1081 1737.3 1081 1783 1081C1828.7 1081 1874.3 1081 1897.2 1081L1920 1081L1920 809L1897.2 783.8C1874.3 758.7 1828.7 708.3 1783 681.3C1737.3 654.3 1691.7 650.7 1646 643.5C1600.3 636.3 1554.7 625.7 1508.8 634.7C1463 643.7 1417 672.3 1371.2 722.7C1325.3 773 1279.7 845 1234 841.3C1188.3 837.7 1142.7 758.3 1097 722.3C1051.3 686.3 1005.7 693.7 960 693.7C914.3 693.7 868.7 686.3 823 690C777.3 693.7 731.7 708.3 686 740.8C640.3 773.3 594.7 823.7 548.8 830.8C503 838 457 802 411.2 802C365.3 802 319.7 838 274 825.3C228.3 812.7 182.7 751.3 137 760.3C91.3 769.3 45.7 848.7 22.8 888.3L0 928Z" fill="#6485b6"></path></svg>