<svg id="visual" viewBox="0 0 1920 1080" width="1920" height="1080" xmlns="http://www.w3.org/2000/svg" xmlns:xlink="http://www.w3.org/1999/xlink" version="1.1"><path d="M0 174L29.2 163.2C58.3 152.3 116.7 130.7 174.8 118C233 105.3 291 101.7 349.2 112.5C407.3 123.3 465.7 148.7 523.8 177.5C582 206.3 640 238.7 698.2 245.8C756.3 253 814.7 235 872.8 208C931 181 989 145 1047.2 145C1105.3 145 1163.7 181 1221.8 181C1280 181 1338 145 1396.2 130.7C1454.3 116.3 1512.7 123.7 1570.8 123.7C1629 123.7 1687 116.3 1745.2 112.7C1803.3 109 1861.7 109 1890.8 109L1920 109L1920 0L1890.8 0C1861.7 0 1803.3 0 1745.2 0C1687 0 1629 0 1570.8 0C1512.7 0 1454.3 0 1396.2 0C1338 0 1280 0 1221.8 0C1163.7 0 1105.3 0 1047.2 0C989 0 931 0 872.8 0C814.7 0 756.3 0 698.2 0C640 0 582 0 523.8 0C465.7 0 407.3 0 349.2 0C291 0 233 0 174.8 0C116.7 0 58.3 0 29.2 0L0 0Z" fill="#333333"></path><path d="M0 433L29.2 415C58.3 397 116.7 361 174.8 375.3C233 389.7 291 454.3 349.2 501.2C407.3 548 465.7 577 523.8 569.8C582 562.7 640 519.3 698.2 512.2C756.3 505 814.7 534 872.8 534C931 534 989 505 1047.2 512.2C1105.3 519.3 1163.7 562.7 1221.8 602.3C1280 642 1338 678 1396.2 658.2C1454.3 638.3 1512.7 562.7 1570.8 524.8C1629 487 1687 487 1745.2 494.2C1803.3 501.3 1861.7 515.7 1890.8 522.8L1920 530L1920 107L1890.8 107C1861.7 107 1803.3 107 1745.2 110.7C1687 114.3 1629 121.7 1570.8 121.7C1512.7 121.7 1454.3 114.3 1396.2 128.7C1338 143 1280 179 1221.8 179C1163.7 179 1105.3 143 1047.2 143C989 143 931 179 872.8 206C814.7 233 756.3 251 698.2 243.8C640 236.7 582 204.3 523.8 175.5C465.7 146.7 407.3 121.3 349.2 110.5C291 99.7 233 103.3 174.8 116C116.7 128.7 58.3 150.3 29.2 161.2L0 172Z" fill="#606060"></path><path d="M0 627L29.2 596.5C58.3 566 116.7 505 174.8 510.5C233 516 291 588 349.2 649.2C407.3 710.3 465.7 760.7 523.8 762.5C582 764.3 640 717.7 698.2 706.8C756.3 696 814.7 721 872.8 703C931 685 989 624 1047.2 618.7C1105.3 613.3 1163.7 663.7 1221.8 703.2C1280 742.7 1338 771.3 1396.2 769.5C1454.3 767.7 1512.7 735.3 1570.8 717.3C1629 699.3 1687 695.7 1745.2 681.3C1803.3 667 1861.7 642 1890.8 629.5L1920 617L1920 528L1890.8 520.8C1861.7 513.7 1803.3 499.3 1745.2 492.2C1687 485 1629 485 1570.8 522.8C1512.7 560.7 1454.3 636.3 1396.2 656.2C1338 676 1280 640 1221.8 600.3C1163.7 560.7 1105.3 517.3 1047.2 510.2C989 503 931 532 872.8 532C814.7 532 756.3 503 698.2 510.2C640 517.3 582 560.7 523.8 567.8C465.7 575 407.3 546 349.2 499.2C291 452.3 233 387.7 174.8 373.3C116.7 359 58.3 395 29.2 413L0 431Z" fill="#929292"></path><path d="M0 811L29.2 780.3C58.3 749.7 116.7 688.3 174.8 681.2C233 674 291 721 349.2 767.8C407.3 814.7 465.7 861.3 523.8 855.8C582 850.3 640 792.7 698.2 776.5C756.3 760.3 814.7 785.7 872.8 769.5C931 753.3 989 695.7 1047.2 693.8C1105.3 692 1163.7 746 1221.8 783.8C1280 821.7 1338 843.3 1396.2 848.8C1454.3 854.3 1512.7 843.7 1570.8 831C1629 818.3 1687 803.7 1745.2 787.3C1803.3 771 1861.7 753 1890.8 744L1920 735L1920 615L1890.8 627.5C1861.7 640 1803.3 665 1745.2 679.3C1687 693.7 1629 697.3 1570.8 715.3C1512.7 733.3 1454.3 765.7 1396.2 767.5C1338 769.3 1280 740.7 1221.8 701.2C1163.7 661.7 1105.3 611.3 1047.2 616.7C989 622 931 683 872.8 701C814.7 719 756.3 694 698.2 704.8C640 715.7 582 762.3 523.8 760.5C465.7 758.7 407.3 708.3 349.2 647.2C291 586 233 514 174.8 508.5C116.7 503 58.3 564 29.2 594.5L0 625Z" fill="#c7c7c7"></path><path d="M0 1081L29.2 1081C58.3 1081 116.7 1081 174.8 1081C233 1081 291 1081 349.2 1081C407.3 1081 465.7 1081 523.8 1081C582 1081 640 1081 698.2 1081C756.3 1081 814.7 1081 872.8 1081C931 1081 989 1081 1047.2 1081C1105.3 1081 1163.7 1081 1221.8 1081C1280 1081 1338 1081 1396.2 1081C1454.3 1081 1512.7 1081 1570.8 1081C1629 1081 1687 1081 1745.2 1081C1803.3 1081 1861.7 1081 1890.8 1081L1920 1081L1920 733L1890.8 742C1861.7 751 1803.3 769 1745.2 785.3C1687 801.7 1629 816.3 1570.8 829C1512.7 841.7 1454.3 852.3 1396.2 846.8C1338 841.3 1280 819.7 1221.8 781.8C1163.7 744 1105.3 690 1047.2 691.8C989 693.7 931 751.3 872.8 767.5C814.7 783.7 756.3 758.3 698.2 774.5C640 790.7 582 848.3 523.8 853.8C465.7 859.3 407.3 812.7 349.2 765.8C291 719 233 672 174.8 679.2C116.7 686.3 58.3 747.7 29.2 778.3L0 809Z" fill="#ffffff"></path></svg>