<svg id="visual" viewBox="0 0 1920 1080" width="1920" height="1080" xmlns="http://www.w3.org/2000/svg" xmlns:xlink="http://www.w3.org/1999/xlink" version="1.1"><path d="M0 314L22.8 315.8C45.7 317.7 91.3 321.3 137 325C182.7 328.7 228.3 332.3 274 325.2C319.7 318 365.3 300 411.2 314.3C457 328.7 503 375.3 548.8 387.8C594.7 400.3 640.3 378.7 686 387.7C731.7 396.7 777.3 436.3 823 432.8C868.7 429.3 914.3 382.7 960 353.8C1005.7 325 1051.3 314 1097 292.3C1142.7 270.7 1188.3 238.3 1234 243.8C1279.7 249.3 1325.3 292.7 1371.2 292.7C1417 292.7 1463 249.3 1508.8 283.5C1554.7 317.7 1600.3 429.3 1646 463.5C1691.7 497.7 1737.3 454.3 1783 398.5C1828.7 342.7 1874.3 274.3 1897.2 240.2L1920 206L1920 0L1897.2 0C1874.3 0 1828.7 0 1783 0C1737.3 0 1691.7 0 1646 0C1600.3 0 1554.7 0 1508.8 0C1463 0 1417 0 1371.2 0C1325.3 0 1279.7 0 1234 0C1188.3 0 1142.7 0 1097 0C1051.3 0 1005.7 0 960 0C914.3 0 868.7 0 823 0C777.3 0 731.7 0 686 0C640.3 0 594.7 0 548.8 0C503 0 457 0 411.2 0C365.3 0 319.7 0 274 0C228.3 0 182.7 0 137 0C91.3 0 45.7 0 22.8 0L0 0Z" fill="#333333"></path><path d="M0 692L22.8 661.5C45.7 631 91.3 570 137 562.8C182.7 555.7 228.3 602.3 274 620.3C319.7 638.3 365.3 627.7 411.2 618.7C457 609.7 503 602.3 548.8 609.5C594.7 616.7 640.3 638.3 686 651C731.7 663.7 777.3 667.3 823 665.5C868.7 663.7 914.3 656.3 960 631C1005.7 605.7 1051.3 562.3 1097 542.5C1142.7 522.7 1188.3 526.3 1234 524.7C1279.7 523 1325.3 516 1371.2 521.5C1417 527 1463 545 1508.8 590C1554.7 635 1600.3 707 1646 716C1691.7 725 1737.3 671 1783 629.5C1828.7 588 1874.3 559 1897.2 544.5L1920 530L1920 204L1897.2 238.2C1874.3 272.3 1828.7 340.7 1783 396.5C1737.3 452.3 1691.7 495.7 1646 461.5C1600.3 427.3 1554.7 315.7 1508.8 281.5C1463 247.3 1417 290.7 1371.2 290.7C1325.3 290.7 1279.7 247.3 1234 241.8C1188.3 236.3 1142.7 268.7 1097 290.3C1051.3 312 1005.7 323 960 351.8C914.3 380.7 868.7 427.3 823 430.8C777.3 434.3 731.7 394.7 686 385.7C640.3 376.7 594.7 398.3 548.8 385.8C503 373.3 457 326.7 411.2 312.3C365.3 298 319.7 316 274 323.2C228.3 330.3 182.7 326.7 137 323C91.3 319.3 45.7 315.7 22.8 313.8L0 312Z" fill="#383b40"></path><path d="M0 865L22.8 838C45.7 811 91.3 757 137 749.8C182.7 742.7 228.3 782.3 274 793.2C319.7 804 365.3 786 411.2 768C457 750 503 732 548.8 730.2C594.7 728.3 640.3 742.7 686 771.5C731.7 800.3 777.3 843.7 823 850.8C868.7 858 914.3 829 960 796.5C1005.7 764 1051.3 728 1097 710C1142.7 692 1188.3 692 1234 688.5C1279.7 685 1325.3 678 1371.2 688.8C1417 699.7 1463 728.3 1508.8 760.7C1554.7 793 1600.3 829 1646 839.8C1691.7 850.7 1737.3 836.3 1783 818.3C1828.7 800.3 1874.3 778.7 1897.2 767.8L1920 757L1920 528L1897.2 542.5C1874.3 557 1828.7 586 1783 627.5C1737.3 669 1691.7 723 1646 714C1600.3 705 1554.7 633 1508.8 588C1463 543 1417 525 1371.2 519.5C1325.3 514 1279.7 521 1234 522.7C1188.3 524.3 1142.7 520.7 1097 540.5C1051.3 560.3 1005.7 603.7 960 629C914.3 654.3 868.7 661.7 823 663.5C777.3 665.3 731.7 661.7 686 649C640.3 636.3 594.7 614.7 548.8 607.5C503 600.3 457 607.7 411.2 616.7C365.3 625.7 319.7 636.3 274 618.3C228.3 600.3 182.7 553.7 137 560.8C91.3 568 45.7 629 22.8 659.5L0 690Z" fill="#3d434e"></path><path d="M0 995L22.8 986C45.7 977 91.3 959 137 955.3C182.7 951.7 228.3 962.3 274 974.8C319.7 987.3 365.3 1001.7 411.2 989C457 976.3 503 936.7 548.8 925.8C594.7 915 640.3 933 686 951C731.7 969 777.3 987 823 992.5C868.7 998 914.3 991 960 987.5C1005.7 984 1051.3 984 1097 975C1142.7 966 1188.3 948 1234 935.3C1279.7 922.7 1325.3 915.3 1371.2 913.5C1417 911.7 1463 915.3 1508.8 926.2C1554.7 937 1600.3 955 1646 956.8C1691.7 958.7 1737.3 944.3 1783 948C1828.7 951.7 1874.3 973.3 1897.2 984.2L1920 995L1920 755L1897.2 765.8C1874.3 776.7 1828.7 798.3 1783 816.3C1737.3 834.3 1691.7 848.7 1646 837.8C1600.3 827 1554.7 791 1508.8 758.7C1463 726.3 1417 697.7 1371.2 686.8C1325.3 676 1279.7 683 1234 686.5C1188.3 690 1142.7 690 1097 708C1051.3 726 1005.7 762 960 794.5C914.3 827 868.7 856 823 848.8C777.3 841.7 731.7 798.3 686 769.5C640.3 740.7 594.7 726.3 548.8 728.2C503 730 457 748 411.2 766C365.3 784 319.7 802 274 791.2C228.3 780.3 182.7 740.7 137 747.8C91.3 755 45.7 809 22.8 836L0 863Z" fill="#424b5c"></path><path d="M0 1081L22.8 1081C45.7 1081 91.3 1081 137 1081C182.7 1081 228.3 1081 274 1081C319.7 1081 365.3 1081 411.2 1081C457 1081 503 1081 548.8 1081C594.7 1081 640.3 1081 686 1081C731.7 1081 777.3 1081 823 1081C868.7 1081 914.3 1081 960 1081C1005.7 1081 1051.3 1081 1097 1081C1142.7 1081 1188.3 1081 1234 1081C1279.7 1081 1325.3 1081 1371.2 1081C1417 1081 1463 1081 1508.8 1081C1554.7 1081 1600.3 1081 1646 1081C1691.7 1081 1737.3 1081 1783 1081C1828.7 1081 1874.3 1081 1897.2 1081L1920 1081L1920 993L1897.2 982.2C1874.3 971.3 1828.7 949.7 1783 946C1737.3 942.3 1691.7 956.7 1646 954.8C1600.3 953 1554.7 935 1508.8 924.2C1463 913.3 1417 909.7 1371.2 911.5C1325.3 913.3 1279.7 920.7 1234 933.3C1188.3 946 1142.7 964 1097 973C1051.3 982 1005.7 982 960 985.5C914.3 989 868.7 996 823 990.5C777.3 985 731.7 967 686 949C640.3 931 594.7 913 548.8 923.8C503 934.7 457 974.3 411.2 987C365.3 999.7 319.7 985.3 274 972.8C228.3 960.3 182.7 949.7 137 953.3C91.3 957 45.7 975 22.8 984L0 993Z" fill="#46546a"></path></svg>